<svg width="18" height="16" viewBox="0 0 18 16" fill="none" xmlns="http://www.w3.org/2000/svg">
<path d="M16.2556 0.744078C16.5811 1.06951 16.5811 1.59715 16.2556 1.92259L2.9223 15.2559C2.59687 15.5814 2.06923 15.5814 1.74379 15.2559C1.41836 14.9305 1.41836 14.4028 1.74379 14.0774L15.0771 0.744078C15.4026 0.418641 15.9302 0.418641 16.2556 0.744078Z" fill="#667185"/>
<path d="M12.166 2.4767C11.2274 2.03469 10.1691 1.75 8.9997 1.75C6.54629 1.75 4.58202 3.00308 3.18604 4.33307C1.78685 5.66611 0.878967 7.14973 0.519581 7.7915C0.284063 8.21207 0.256012 8.71426 0.449336 9.16031C0.584347 9.47181 0.813951 9.95437 1.15237 10.5143C1.39041 10.9082 1.9027 11.0346 2.29659 10.7965C2.69049 10.5585 2.81683 10.0462 2.57879 9.65232C2.3066 9.20192 2.11772 8.81241 2.00316 8.55369C2.34129 7.95778 3.14208 6.67693 4.33569 5.53975C5.56858 4.36513 7.14141 3.41667 8.9997 3.41667C9.66808 3.41667 10.2995 3.53937 10.8915 3.75116L12.166 2.4767Z" fill="#667185"/>
<path d="M13.7418 5.61491C14.8923 6.73288 15.6655 7.97087 15.9962 8.55369C15.8817 8.81241 15.6928 9.20192 15.4206 9.65232C15.1826 10.0462 15.3089 10.5585 15.7028 10.7965C16.0967 11.0346 16.609 10.9082 16.847 10.5143C17.1855 9.95437 17.4151 9.47181 17.5501 9.1603C17.7434 8.71426 17.7153 8.21207 17.4798 7.7915C17.1297 7.16625 16.2589 5.74193 14.9204 4.43629L13.7418 5.61491Z" fill="#667185"/>
<path d="M8.99971 4.66667C9.30256 4.66667 9.59786 4.69898 9.88236 4.76034L8.1675 6.47519C7.45625 6.7262 6.89258 7.28987 6.64157 8.00112L4.92672 9.71597C4.86536 9.43148 4.83305 9.13618 4.83305 8.83333C4.83305 6.53215 6.69853 4.66667 8.99971 4.66667Z" fill="#667185"/>
<path d="M8.99971 11.3333C8.70732 11.3333 8.42665 11.2831 8.16585 11.1909L6.91498 12.4418C7.52815 12.7968 8.2402 13 8.99971 13C11.3009 13 13.1664 11.1345 13.1664 8.83333C13.1664 8.07382 12.9632 7.36177 12.6081 6.74859L11.3573 7.99947C11.4495 8.26027 11.4997 8.54094 11.4997 8.83333C11.4997 10.214 10.3804 11.3333 8.99971 11.3333Z" fill="#667185"/>
</svg>
