<svg width="20" height="16" viewBox="0 0 20 16" fill="none" xmlns="http://www.w3.org/2000/svg">
<path fill-rule="evenodd" clip-rule="evenodd" d="M15.8335 15.5C17.6744 15.5 19.1668 14.0076 19.1668 12.1667V4.68557C19.1671 4.67283 19.1671 4.66005 19.1668 4.64725V3.83333C19.1668 1.99238 17.6744 0.5 15.8335 0.5H4.16681C2.32586 0.5 0.833474 1.99238 0.833474 3.83333V4.64726C0.833177 4.66005 0.833179 4.67282 0.833474 4.68556V12.1667C0.833474 14.0076 2.32586 15.5 4.16681 15.5H15.8335ZM2.50014 12.1667C2.50014 13.0871 3.24633 13.8333 4.16681 13.8333H15.8335C16.7539 13.8333 17.5001 13.0871 17.5001 12.1667V5.89753L11.2381 8.40234C10.4434 8.72022 9.55687 8.72022 8.76217 8.40234L2.50014 5.89753V12.1667ZM10.6191 6.85488L17.5001 4.10247V3.83333C17.5001 2.91286 16.7539 2.16667 15.8335 2.16667H4.16681C3.24633 2.16667 2.50014 2.91286 2.50014 3.83333V4.10247L9.38116 6.85488C9.77851 7.01382 10.2218 7.01382 10.6191 6.85488Z" fill="#667185"/>
</svg>
